<mxfile host="Electron" agent="Mozilla/5.0 (Windows NT 10.0; Win64; x64) AppleWebKit/537.36 (KHTML, like Gecko) draw.io/25.0.2 Chrome/128.0.6613.186 Electron/32.2.5 Safari/537.36" version="25.0.2">
  <diagram name="Page-1" id="57Nd_1yXnXNnEJ3uw_Fq">
    <mxGraphModel dx="1036" dy="606" grid="0" gridSize="10" guides="1" tooltips="1" connect="1" arrows="1" fold="1" page="1" pageScale="1" pageWidth="850" pageHeight="1100" background="#FFFFFF" math="0" shadow="0">
      <root>
        <mxCell id="0" />
        <mxCell id="1" parent="0" />
        <mxCell id="Gmx4ZbTDCFqjBw9HPOcB-69" value="N.Virginia" style="sketch=0;outlineConnect=0;html=1;whiteSpace=wrap;fontSize=12;fontStyle=0;shape=mxgraph.aws4.group;grIcon=mxgraph.aws4.group_region;verticalAlign=top;align=left;spacingLeft=30;dashed=1;strokeWidth=1;strokeColor=#007FFF;" parent="1" vertex="1">
          <mxGeometry x="145" y="29" width="550" height="528" as="geometry" />
        </mxCell>
        <mxCell id="Gmx4ZbTDCFqjBw9HPOcB-70" value="VPC" style="points=[[0,0],[0.25,0],[0.5,0],[0.75,0],[1,0],[1,0.25],[1,0.5],[1,0.75],[1,1],[0.75,1],[0.5,1],[0.25,1],[0,1],[0,0.75],[0,0.5],[0,0.25]];outlineConnect=0;gradientColor=none;html=1;whiteSpace=wrap;fontSize=12;fontStyle=0;container=1;pointerEvents=0;collapsible=0;recursiveResize=0;shape=mxgraph.aws4.group;grIcon=mxgraph.aws4.group_vpc2;strokeColor=#8C4FFF;fillColor=none;verticalAlign=top;align=left;spacingLeft=30;fontColor=#AAB7B8;dashed=0;strokeWidth=1;" parent="1" vertex="1">
          <mxGeometry x="161" y="59" width="506" height="483" as="geometry" />
        </mxCell>
        <mxCell id="Gmx4ZbTDCFqjBw9HPOcB-73" value="Availability zone2" style="sketch=0;outlineConnect=0;gradientColor=none;html=1;whiteSpace=wrap;fontSize=12;fontStyle=0;shape=mxgraph.aws4.group;grIcon=mxgraph.aws4.group_availability_zone;strokeColor=#990000;fillColor=none;verticalAlign=top;align=left;spacingLeft=30;fontColor=#545B64;dashed=1;strokeWidth=1;" parent="Gmx4ZbTDCFqjBw9HPOcB-70" vertex="1">
          <mxGeometry x="230" y="29" width="202" height="441" as="geometry" />
        </mxCell>
        <mxCell id="Gmx4ZbTDCFqjBw9HPOcB-76" value="&lt;span style=&quot;background-color: rgb(0, 153, 77);&quot;&gt;&lt;font color=&quot;#000000&quot;&gt;192.168.4.9/24&lt;/font&gt;&lt;/span&gt;" style="points=[[0,0],[0.25,0],[0.5,0],[0.75,0],[1,0],[1,0.25],[1,0.5],[1,0.75],[1,1],[0.75,1],[0.5,1],[0.25,1],[0,1],[0,0.75],[0,0.5],[0,0.25]];outlineConnect=0;gradientColor=none;html=1;whiteSpace=wrap;fontSize=12;fontStyle=0;container=1;pointerEvents=0;collapsible=0;recursiveResize=0;shape=mxgraph.aws4.group;grIcon=mxgraph.aws4.group_security_group;grStroke=0;strokeColor=#97D077;fillColor=#F2F6E8;verticalAlign=top;align=left;spacingLeft=30;fontColor=#248814;dashed=0;strokeWidth=1;" parent="Gmx4ZbTDCFqjBw9HPOcB-70" vertex="1">
          <mxGeometry x="238" y="66" width="173" height="162" as="geometry" />
        </mxCell>
        <mxCell id="Gmx4ZbTDCFqjBw9HPOcB-129" value="&lt;h3&gt;&lt;b&gt;NAT GW&lt;/b&gt;&lt;/h3&gt;" style="text;html=1;align=center;verticalAlign=middle;whiteSpace=wrap;rounded=0;" parent="Gmx4ZbTDCFqjBw9HPOcB-76" vertex="1">
          <mxGeometry x="53" y="122" width="60" height="30" as="geometry" />
        </mxCell>
        <mxCell id="Gmx4ZbTDCFqjBw9HPOcB-78" value="&lt;span style=&quot;background-color: rgb(153, 204, 255);&quot;&gt;192.168.2.0/24&lt;/span&gt;" style="points=[[0,0],[0.25,0],[0.5,0],[0.75,0],[1,0],[1,0.25],[1,0.5],[1,0.75],[1,1],[0.75,1],[0.5,1],[0.25,1],[0,1],[0,0.75],[0,0.5],[0,0.25]];outlineConnect=0;gradientColor=none;html=1;whiteSpace=wrap;fontSize=12;fontStyle=0;container=1;pointerEvents=0;collapsible=0;recursiveResize=0;shape=mxgraph.aws4.group;grIcon=mxgraph.aws4.group_security_group;grStroke=0;strokeColor=#00A4A6;fillColor=#E6F6F7;verticalAlign=top;align=left;spacingLeft=30;fontColor=#147EBA;dashed=0;strokeWidth=1;" parent="Gmx4ZbTDCFqjBw9HPOcB-70" vertex="1">
          <mxGeometry x="242" y="255" width="172" height="176" as="geometry" />
        </mxCell>
        <mxCell id="Gmx4ZbTDCFqjBw9HPOcB-79" value="" style="sketch=0;outlineConnect=0;fontColor=#232F3E;gradientColor=none;fillColor=#8C4FFF;strokeColor=none;dashed=0;verticalLabelPosition=bottom;verticalAlign=top;align=center;html=1;fontSize=12;fontStyle=0;aspect=fixed;pointerEvents=1;shape=mxgraph.aws4.application_load_balancer;strokeWidth=1;" parent="Gmx4ZbTDCFqjBw9HPOcB-70" vertex="1">
          <mxGeometry x="443" y="197" width="53" height="53" as="geometry" />
        </mxCell>
        <mxCell id="Gmx4ZbTDCFqjBw9HPOcB-99" value="" style="sketch=0;outlineConnect=0;fontColor=#232F3E;gradientColor=none;fillColor=#7AA116;strokeColor=none;dashed=0;verticalLabelPosition=bottom;verticalAlign=top;align=center;html=1;fontSize=12;fontStyle=0;aspect=fixed;pointerEvents=1;shape=mxgraph.aws4.policy;" parent="Gmx4ZbTDCFqjBw9HPOcB-70" vertex="1">
          <mxGeometry x="356.28" y="363" width="54.72" height="47" as="geometry" />
        </mxCell>
        <mxCell id="Gmx4ZbTDCFqjBw9HPOcB-100" value="&lt;b&gt;S3 Policy&lt;/b&gt;" style="text;html=1;align=center;verticalAlign=middle;whiteSpace=wrap;rounded=0;" parent="Gmx4ZbTDCFqjBw9HPOcB-70" vertex="1">
          <mxGeometry x="351" y="401" width="60" height="30" as="geometry" />
        </mxCell>
        <mxCell id="Gmx4ZbTDCFqjBw9HPOcB-101" value="" style="sketch=0;outlineConnect=0;fontColor=#232F3E;gradientColor=none;fillColor=#DD344C;strokeColor=none;dashed=0;verticalLabelPosition=bottom;verticalAlign=top;align=center;html=1;fontSize=12;fontStyle=0;aspect=fixed;pointerEvents=1;shape=mxgraph.aws4.role;" parent="Gmx4ZbTDCFqjBw9HPOcB-70" vertex="1">
          <mxGeometry x="303" y="374" width="48" height="27.08" as="geometry" />
        </mxCell>
        <mxCell id="Gmx4ZbTDCFqjBw9HPOcB-102" value="&lt;b&gt;IAM role&lt;/b&gt;" style="text;html=1;align=center;verticalAlign=middle;whiteSpace=wrap;rounded=0;" parent="Gmx4ZbTDCFqjBw9HPOcB-70" vertex="1">
          <mxGeometry x="294.5" y="401" width="60" height="30" as="geometry" />
        </mxCell>
        <mxCell id="Gmx4ZbTDCFqjBw9HPOcB-105" value="" style="sketch=0;outlineConnect=0;fontColor=#232F3E;gradientColor=none;fillColor=#8C4FFF;strokeColor=none;dashed=0;verticalLabelPosition=bottom;verticalAlign=top;align=center;html=1;fontSize=12;fontStyle=0;aspect=fixed;pointerEvents=1;shape=mxgraph.aws4.nat_gateway;" parent="Gmx4ZbTDCFqjBw9HPOcB-70" vertex="1">
          <mxGeometry x="283" y="102" width="78" height="78" as="geometry" />
        </mxCell>
        <mxCell id="Gmx4ZbTDCFqjBw9HPOcB-72" value="Availability zone1" style="sketch=0;outlineConnect=0;html=1;whiteSpace=wrap;fontSize=12;fontStyle=0;shape=mxgraph.aws4.group;grIcon=mxgraph.aws4.group_availability_zone;verticalAlign=top;align=left;spacingLeft=30;dashed=1;strokeColor=#990000;strokeWidth=1;" parent="1" vertex="1">
          <mxGeometry x="173" y="88" width="205" height="441" as="geometry" />
        </mxCell>
        <mxCell id="Gmx4ZbTDCFqjBw9HPOcB-74" value="&lt;font style=&quot;background-color: rgb(0, 153, 77);&quot; color=&quot;#000000&quot;&gt;192.168.3.0/24&lt;/font&gt;" style="points=[[0,0],[0.25,0],[0.5,0],[0.75,0],[1,0],[1,0.25],[1,0.5],[1,0.75],[1,1],[0.75,1],[0.5,1],[0.25,1],[0,1],[0,0.75],[0,0.5],[0,0.25]];outlineConnect=0;gradientColor=none;html=1;whiteSpace=wrap;fontSize=12;fontStyle=0;container=1;pointerEvents=0;collapsible=0;recursiveResize=0;shape=mxgraph.aws4.group;grIcon=mxgraph.aws4.group_security_group;grStroke=0;strokeColor=#97D077;fillColor=#F2F6E8;verticalAlign=top;align=left;spacingLeft=30;fontColor=#248814;dashed=0;strokeWidth=1;" parent="1" vertex="1">
          <mxGeometry x="187" y="123" width="173" height="162" as="geometry" />
        </mxCell>
        <mxCell id="Gmx4ZbTDCFqjBw9HPOcB-130" value="&lt;h3&gt;&lt;b&gt;Jump Server&lt;/b&gt;&lt;/h3&gt;" style="text;html=1;align=center;verticalAlign=middle;whiteSpace=wrap;rounded=0;" parent="Gmx4ZbTDCFqjBw9HPOcB-74" vertex="1">
          <mxGeometry x="40.5" y="119" width="92" height="30" as="geometry" />
        </mxCell>
        <mxCell id="Gmx4ZbTDCFqjBw9HPOcB-77" value="&lt;span style=&quot;background-color: rgb(153, 204, 255);&quot;&gt;192.168.1.0/24&lt;/span&gt;" style="points=[[0,0],[0.25,0],[0.5,0],[0.75,0],[1,0],[1,0.25],[1,0.5],[1,0.75],[1,1],[0.75,1],[0.5,1],[0.25,1],[0,1],[0,0.75],[0,0.5],[0,0.25]];outlineConnect=0;gradientColor=none;html=1;whiteSpace=wrap;fontSize=12;fontStyle=0;container=1;pointerEvents=0;collapsible=0;recursiveResize=0;shape=mxgraph.aws4.group;grIcon=mxgraph.aws4.group_security_group;grStroke=0;strokeColor=#00A4A6;fillColor=#E6F6F7;verticalAlign=top;align=left;spacingLeft=30;fontColor=#147EBA;dashed=0;strokeWidth=1;" parent="1" vertex="1">
          <mxGeometry x="191" y="313" width="172" height="176" as="geometry" />
        </mxCell>
        <mxCell id="Gmx4ZbTDCFqjBw9HPOcB-80" value="" style="sketch=0;outlineConnect=0;fontColor=#232F3E;gradientColor=none;fillColor=#8C4FFF;strokeColor=none;dashed=0;verticalLabelPosition=bottom;verticalAlign=top;align=center;html=1;fontSize=12;fontStyle=0;aspect=fixed;pointerEvents=1;shape=mxgraph.aws4.internet_gateway;strokeWidth=1;" parent="1" vertex="1">
          <mxGeometry x="671" y="256" width="54" height="54" as="geometry" />
        </mxCell>
        <mxCell id="Gmx4ZbTDCFqjBw9HPOcB-81" value="" style="image;aspect=fixed;perimeter=ellipsePerimeter;html=1;align=center;shadow=0;dashed=0;spacingTop=3;image=img/lib/active_directory/internet_cloud.svg;" parent="1" vertex="1">
          <mxGeometry x="766" y="254.56" width="88" height="55.44" as="geometry" />
        </mxCell>
        <mxCell id="Gmx4ZbTDCFqjBw9HPOcB-82" value="" style="endArrow=none;html=1;rounded=0;" parent="1" source="Gmx4ZbTDCFqjBw9HPOcB-80" target="Gmx4ZbTDCFqjBw9HPOcB-81" edge="1">
          <mxGeometry width="50" height="50" relative="1" as="geometry">
            <mxPoint x="631" y="285" as="sourcePoint" />
            <mxPoint x="446" y="273" as="targetPoint" />
            <Array as="points" />
          </mxGeometry>
        </mxCell>
        <mxCell id="Gmx4ZbTDCFqjBw9HPOcB-83" value="" style="sketch=0;points=[[0,0,0],[0.25,0,0],[0.5,0,0],[0.75,0,0],[1,0,0],[0,1,0],[0.25,1,0],[0.5,1,0],[0.75,1,0],[1,1,0],[0,0.25,0],[0,0.5,0],[0,0.75,0],[1,0.25,0],[1,0.5,0],[1,0.75,0]];outlineConnect=0;fontColor=#232F3E;fillColor=#ED7100;strokeColor=#ffffff;dashed=0;verticalLabelPosition=bottom;verticalAlign=top;align=center;html=1;fontSize=12;fontStyle=0;aspect=fixed;shape=mxgraph.aws4.resourceIcon;resIcon=mxgraph.aws4.ec2;" parent="1" vertex="1">
          <mxGeometry x="236.5" y="160" width="78" height="78" as="geometry" />
        </mxCell>
        <mxCell id="Gmx4ZbTDCFqjBw9HPOcB-89" value="" style="rounded=1;whiteSpace=wrap;html=1;fillColor=#ffe6cc;strokeColor=#d79b00;" parent="1" vertex="1">
          <mxGeometry x="282" y="357" width="194" height="88" as="geometry" />
        </mxCell>
        <mxCell id="Gmx4ZbTDCFqjBw9HPOcB-90" value="" style="sketch=0;points=[[0,0,0],[0.25,0,0],[0.5,0,0],[0.75,0,0],[1,0,0],[0,1,0],[0.25,1,0],[0.5,1,0],[0.75,1,0],[1,1,0],[0,0.25,0],[0,0.5,0],[0,0.75,0],[1,0.25,0],[1,0.5,0],[1,0.75,0]];outlineConnect=0;fontColor=#232F3E;fillColor=#ED7100;strokeColor=#ffffff;dashed=0;verticalLabelPosition=bottom;verticalAlign=top;align=center;html=1;fontSize=12;fontStyle=0;aspect=fixed;shape=mxgraph.aws4.resourceIcon;resIcon=mxgraph.aws4.ec2;" parent="1" vertex="1">
          <mxGeometry x="301" y="361.5" width="53" height="53" as="geometry" />
        </mxCell>
        <mxCell id="Gmx4ZbTDCFqjBw9HPOcB-91" value="" style="sketch=0;points=[[0,0,0],[0.25,0,0],[0.5,0,0],[0.75,0,0],[1,0,0],[0,1,0],[0.25,1,0],[0.5,1,0],[0.75,1,0],[1,1,0],[0,0.25,0],[0,0.5,0],[0,0.75,0],[1,0.25,0],[1,0.5,0],[1,0.75,0]];outlineConnect=0;fontColor=#232F3E;fillColor=#ED7100;strokeColor=#ffffff;dashed=0;verticalLabelPosition=bottom;verticalAlign=top;align=center;html=1;fontSize=12;fontStyle=0;aspect=fixed;shape=mxgraph.aws4.resourceIcon;resIcon=mxgraph.aws4.ec2;" parent="1" vertex="1">
          <mxGeometry x="408" y="361.5" width="52" height="52" as="geometry" />
        </mxCell>
        <mxCell id="Gmx4ZbTDCFqjBw9HPOcB-92" value="&lt;b&gt;Web server1&lt;/b&gt;" style="text;html=1;align=center;verticalAlign=middle;whiteSpace=wrap;rounded=0;" parent="1" vertex="1">
          <mxGeometry x="294" y="411" width="74" height="30" as="geometry" />
        </mxCell>
        <mxCell id="Gmx4ZbTDCFqjBw9HPOcB-94" value="&lt;b&gt;Web server2&lt;/b&gt;" style="text;html=1;align=center;verticalAlign=middle;whiteSpace=wrap;rounded=0;" parent="1" vertex="1">
          <mxGeometry x="396" y="411" width="74" height="30" as="geometry" />
        </mxCell>
        <mxCell id="Gmx4ZbTDCFqjBw9HPOcB-95" value="&lt;b&gt;Auto Scale Group&lt;/b&gt;" style="text;html=1;align=center;verticalAlign=middle;whiteSpace=wrap;rounded=0;" parent="1" vertex="1">
          <mxGeometry x="354" y="367" width="60" height="41" as="geometry" />
        </mxCell>
        <mxCell id="Gmx4ZbTDCFqjBw9HPOcB-97" value="" style="sketch=0;points=[[0,0,0],[0.25,0,0],[0.5,0,0],[0.75,0,0],[1,0,0],[0,1,0],[0.25,1,0],[0.5,1,0],[0.75,1,0],[1,1,0],[0,0.25,0],[0,0.5,0],[0,0.75,0],[1,0.25,0],[1,0.5,0],[1,0.75,0]];outlineConnect=0;fontColor=#232F3E;fillColor=#7AA116;strokeColor=#ffffff;dashed=0;verticalLabelPosition=bottom;verticalAlign=top;align=center;html=1;fontSize=12;fontStyle=0;aspect=fixed;shape=mxgraph.aws4.resourceIcon;resIcon=mxgraph.aws4.s3;" parent="1" vertex="1">
          <mxGeometry x="732.5" y="408" width="69" height="69" as="geometry" />
        </mxCell>
        <mxCell id="Gmx4ZbTDCFqjBw9HPOcB-98" value="&lt;h3&gt;&lt;b&gt;S3&lt;/b&gt;&lt;/h3&gt;" style="text;html=1;align=center;verticalAlign=middle;whiteSpace=wrap;rounded=0;" parent="1" vertex="1">
          <mxGeometry x="737" y="477" width="60" height="30" as="geometry" />
        </mxCell>
        <mxCell id="Gmx4ZbTDCFqjBw9HPOcB-104" value="" style="endArrow=classic;html=1;rounded=0;entryX=0;entryY=0.5;entryDx=0;entryDy=0;entryPerimeter=0;" parent="1" source="Gmx4ZbTDCFqjBw9HPOcB-99" target="Gmx4ZbTDCFqjBw9HPOcB-97" edge="1">
          <mxGeometry width="50" height="50" relative="1" as="geometry">
            <mxPoint x="404" y="300" as="sourcePoint" />
            <mxPoint x="454" y="250" as="targetPoint" />
          </mxGeometry>
        </mxCell>
        <mxCell id="Gmx4ZbTDCFqjBw9HPOcB-106" value="&lt;h3&gt;&lt;b&gt;ALB&lt;/b&gt;&lt;/h3&gt;" style="text;html=1;align=center;verticalAlign=middle;whiteSpace=wrap;rounded=0;" parent="1" vertex="1">
          <mxGeometry x="602" y="313" width="60" height="30" as="geometry" />
        </mxCell>
        <mxCell id="Gmx4ZbTDCFqjBw9HPOcB-107" value="&lt;h3&gt;&lt;b&gt;IGW&lt;/b&gt;&lt;/h3&gt;" style="text;html=1;align=center;verticalAlign=middle;whiteSpace=wrap;rounded=0;" parent="1" vertex="1">
          <mxGeometry x="671" y="313" width="60" height="30" as="geometry" />
        </mxCell>
        <mxCell id="Gmx4ZbTDCFqjBw9HPOcB-108" value="" style="image;sketch=0;aspect=fixed;html=1;points=[];align=center;fontSize=12;image=img/lib/mscae/Network_Security_Groups_Classic.svg;" parent="1" vertex="1">
          <mxGeometry x="201" y="432" width="33.3" height="45" as="geometry" />
        </mxCell>
        <mxCell id="Gmx4ZbTDCFqjBw9HPOcB-109" value="&lt;b&gt;SG&amp;nbsp;&lt;br&gt;Port 22, 80&lt;/b&gt;" style="text;html=1;align=left;verticalAlign=middle;whiteSpace=wrap;rounded=0;" parent="1" vertex="1">
          <mxGeometry x="195" y="477" width="65" height="30" as="geometry" />
        </mxCell>
        <mxCell id="Gmx4ZbTDCFqjBw9HPOcB-110" value="&lt;b&gt;SG&amp;nbsp;&lt;br&gt;Port 22&lt;/b&gt;" style="text;html=1;align=left;verticalAlign=middle;whiteSpace=wrap;rounded=0;" parent="1" vertex="1">
          <mxGeometry x="191" y="283" width="65" height="30" as="geometry" />
        </mxCell>
        <mxCell id="Gmx4ZbTDCFqjBw9HPOcB-111" value="" style="shape=table;startSize=0;container=1;collapsible=0;childLayout=tableLayout;strokeColor=#97D077;" parent="1" vertex="1">
          <mxGeometry y="200" width="145" height="65.64996948242188" as="geometry" />
        </mxCell>
        <mxCell id="Gmx4ZbTDCFqjBw9HPOcB-112" value="" style="shape=tableRow;horizontal=0;startSize=0;swimlaneHead=0;swimlaneBody=0;strokeColor=inherit;top=0;left=0;bottom=0;right=0;collapsible=0;dropTarget=0;fillColor=none;points=[[0,0.5],[1,0.5]];portConstraint=eastwest;" parent="Gmx4ZbTDCFqjBw9HPOcB-111" vertex="1">
          <mxGeometry width="145" height="32" as="geometry" />
        </mxCell>
        <mxCell id="Gmx4ZbTDCFqjBw9HPOcB-113" value="&lt;b&gt;Network&lt;/b&gt;" style="shape=partialRectangle;html=1;whiteSpace=wrap;connectable=0;strokeColor=#97D077;overflow=hidden;fillColor=#97D077;top=0;left=0;bottom=0;right=0;pointerEvents=1;" parent="Gmx4ZbTDCFqjBw9HPOcB-112" vertex="1">
          <mxGeometry width="73" height="32" as="geometry">
            <mxRectangle width="73" height="32" as="alternateBounds" />
          </mxGeometry>
        </mxCell>
        <mxCell id="Gmx4ZbTDCFqjBw9HPOcB-114" value="&lt;b&gt;Next hob&lt;/b&gt;" style="shape=partialRectangle;html=1;whiteSpace=wrap;connectable=0;strokeColor=#6c8ebf;overflow=hidden;fillColor=#97D077;top=0;left=0;bottom=0;right=0;pointerEvents=1;" parent="Gmx4ZbTDCFqjBw9HPOcB-112" vertex="1">
          <mxGeometry x="73" width="72" height="32" as="geometry">
            <mxRectangle width="72" height="32" as="alternateBounds" />
          </mxGeometry>
        </mxCell>
        <mxCell id="Gmx4ZbTDCFqjBw9HPOcB-115" value="" style="shape=tableRow;horizontal=0;startSize=0;swimlaneHead=0;swimlaneBody=0;strokeColor=inherit;top=0;left=0;bottom=0;right=0;collapsible=0;dropTarget=0;fillColor=none;points=[[0,0.5],[1,0.5]];portConstraint=eastwest;" parent="Gmx4ZbTDCFqjBw9HPOcB-111" vertex="1">
          <mxGeometry y="32" width="145" height="34" as="geometry" />
        </mxCell>
        <mxCell id="Gmx4ZbTDCFqjBw9HPOcB-116" value="&lt;b&gt;0.0.0.0/0&lt;/b&gt;" style="shape=partialRectangle;html=1;whiteSpace=wrap;connectable=0;strokeColor=inherit;overflow=hidden;fillColor=none;top=0;left=0;bottom=0;right=0;pointerEvents=1;" parent="Gmx4ZbTDCFqjBw9HPOcB-115" vertex="1">
          <mxGeometry width="73" height="34" as="geometry">
            <mxRectangle width="73" height="34" as="alternateBounds" />
          </mxGeometry>
        </mxCell>
        <mxCell id="Gmx4ZbTDCFqjBw9HPOcB-117" value="&lt;b&gt;IGW&lt;/b&gt;" style="shape=partialRectangle;html=1;whiteSpace=wrap;connectable=0;strokeColor=inherit;overflow=hidden;fillColor=none;top=0;left=0;bottom=0;right=0;pointerEvents=1;" parent="Gmx4ZbTDCFqjBw9HPOcB-115" vertex="1">
          <mxGeometry x="73" width="72" height="34" as="geometry">
            <mxRectangle width="72" height="34" as="alternateBounds" />
          </mxGeometry>
        </mxCell>
        <mxCell id="Gmx4ZbTDCFqjBw9HPOcB-120" value="" style="shape=table;startSize=0;container=1;collapsible=0;childLayout=tableLayout;strokeColor=#99CCFF;" parent="1" vertex="1">
          <mxGeometry y="448" width="145" height="65.64996948242188" as="geometry" />
        </mxCell>
        <mxCell id="Gmx4ZbTDCFqjBw9HPOcB-121" value="" style="shape=tableRow;horizontal=0;startSize=0;swimlaneHead=0;swimlaneBody=0;strokeColor=inherit;top=0;left=0;bottom=0;right=0;collapsible=0;dropTarget=0;fillColor=none;points=[[0,0.5],[1,0.5]];portConstraint=eastwest;" parent="Gmx4ZbTDCFqjBw9HPOcB-120" vertex="1">
          <mxGeometry width="145" height="32" as="geometry" />
        </mxCell>
        <mxCell id="Gmx4ZbTDCFqjBw9HPOcB-122" value="&lt;b&gt;Network&lt;/b&gt;" style="shape=partialRectangle;html=1;whiteSpace=wrap;connectable=0;strokeColor=#6c8ebf;overflow=hidden;fillColor=#dae8fc;top=0;left=0;bottom=0;right=0;pointerEvents=1;" parent="Gmx4ZbTDCFqjBw9HPOcB-121" vertex="1">
          <mxGeometry width="73" height="32" as="geometry">
            <mxRectangle width="73" height="32" as="alternateBounds" />
          </mxGeometry>
        </mxCell>
        <mxCell id="Gmx4ZbTDCFqjBw9HPOcB-123" value="&lt;b&gt;Next hob&lt;/b&gt;" style="shape=partialRectangle;html=1;whiteSpace=wrap;connectable=0;strokeColor=#6c8ebf;overflow=hidden;fillColor=#dae8fc;top=0;left=0;bottom=0;right=0;pointerEvents=1;" parent="Gmx4ZbTDCFqjBw9HPOcB-121" vertex="1">
          <mxGeometry x="73" width="72" height="32" as="geometry">
            <mxRectangle width="72" height="32" as="alternateBounds" />
          </mxGeometry>
        </mxCell>
        <mxCell id="Gmx4ZbTDCFqjBw9HPOcB-124" value="" style="shape=tableRow;horizontal=0;startSize=0;swimlaneHead=0;swimlaneBody=0;strokeColor=inherit;top=0;left=0;bottom=0;right=0;collapsible=0;dropTarget=0;fillColor=none;points=[[0,0.5],[1,0.5]];portConstraint=eastwest;" parent="Gmx4ZbTDCFqjBw9HPOcB-120" vertex="1">
          <mxGeometry y="32" width="145" height="34" as="geometry" />
        </mxCell>
        <mxCell id="Gmx4ZbTDCFqjBw9HPOcB-125" value="&lt;b&gt;0.0.0.0/0&lt;/b&gt;" style="shape=partialRectangle;html=1;whiteSpace=wrap;connectable=0;strokeColor=inherit;overflow=hidden;fillColor=none;top=0;left=0;bottom=0;right=0;pointerEvents=1;" parent="Gmx4ZbTDCFqjBw9HPOcB-124" vertex="1">
          <mxGeometry width="73" height="34" as="geometry">
            <mxRectangle width="73" height="34" as="alternateBounds" />
          </mxGeometry>
        </mxCell>
        <mxCell id="Gmx4ZbTDCFqjBw9HPOcB-126" value="&lt;b&gt;NAT GW&lt;/b&gt;" style="shape=partialRectangle;html=1;whiteSpace=wrap;connectable=0;strokeColor=inherit;overflow=hidden;fillColor=none;top=0;left=0;bottom=0;right=0;pointerEvents=1;" parent="Gmx4ZbTDCFqjBw9HPOcB-124" vertex="1">
          <mxGeometry x="73" width="72" height="34" as="geometry">
            <mxRectangle width="72" height="34" as="alternateBounds" />
          </mxGeometry>
        </mxCell>
        <mxCell id="Gmx4ZbTDCFqjBw9HPOcB-127" value="&lt;b&gt;Public Routing Table&lt;/b&gt;" style="text;html=1;align=center;verticalAlign=middle;whiteSpace=wrap;rounded=0;" parent="1" vertex="1">
          <mxGeometry x="4" y="168" width="126" height="30" as="geometry" />
        </mxCell>
        <mxCell id="Gmx4ZbTDCFqjBw9HPOcB-128" value="&lt;b&gt;Private Routing Table&lt;/b&gt;" style="text;html=1;align=center;verticalAlign=middle;whiteSpace=wrap;rounded=0;" parent="1" vertex="1">
          <mxGeometry x="6" y="391" width="127.5" height="30" as="geometry" />
        </mxCell>
      </root>
    </mxGraphModel>
  </diagram>
</mxfile>
